<?xml version="1.0" encoding="utf-8"?>
<!-- Generator: Adobe Illustrator 16.0.0, SVG Export Plug-In . SVG Version: 6.00 Build 0)  -->
<!DOCTYPE svg PUBLIC "-//W3C//DTD SVG 1.1//EN" "http://www.w3.org/Graphics/SVG/1.1/DTD/svg11.dtd">
<svg version="1.1" xmlns="http://www.w3.org/2000/svg" xmlns:xlink="http://www.w3.org/1999/xlink" x="0px" y="0px" width="300px"
	 height="300px" viewBox="0 0 300 300" enable-background="new 0 0 300 300" xml:space="preserve">
<g id="beer">
	<g>
		<path fill="#FFFFFF" d="M33.482,63.202V281.69c0,9.561,7.75,17.31,17.312,17.31h144.245c9.562,0,17.312-7.749,17.312-17.31V63.202
			H33.482z"/>
		<path fill="#FBAA19" d="M39.218,50.362v222.515c0,8.945,7.257,16.197,16.203,16.197h134.994c8.946,0,16.196-7.252,16.196-16.197
			V50.362H39.218z"/>
		<g>
			<circle opacity="0.2" fill="#F6F9FB" cx="95.953" cy="254.08" r="5.13"/>
			<circle opacity="0.2" fill="#F6F9FB" cx="127.748" cy="196.798" r="5.13"/>
			<circle opacity="0.2" fill="#F6F9FB" cx="154.568" cy="235.298" r="5.13"/>
			<path opacity="0.2" fill="#F6F9FB" d="M82.375,120.208c0-2.833-2.296-5.13-5.128-5.13c-2.836,0-5.131,2.296-5.131,5.13
				s2.295,5.129,5.131,5.129C80.079,125.337,82.375,123.041,82.375,120.208z"/>
			<circle opacity="0.2" fill="#F6F9FB" cx="69.845" cy="208.309" r="5.131"/>
			<path opacity="0.2" fill="#F6F9FB" d="M118.691,135.501c0-2.834-2.296-5.13-5.132-5.13c-2.832,0-5.126,2.296-5.126,5.13
				c0,2.833,2.295,5.129,5.126,5.129C116.395,140.63,118.691,138.334,118.691,135.501z"/>
			<circle opacity="0.2" fill="#F6F9FB" cx="144.308" cy="111.678" r="3.494"/>
			<path opacity="0.2" fill="#F6F9FB" d="M78.469,160.528c0-1.931-1.564-3.493-3.492-3.493c-1.932,0-3.495,1.562-3.495,3.493
				c0,1.93,1.562,3.492,3.495,3.492C76.904,164.021,78.469,162.458,78.469,160.528z"/>
			<path opacity="0.2" fill="#F6F9FB" d="M170.027,153.15c0-1.931-1.563-3.492-3.491-3.492c-1.934,0-3.497,1.562-3.497,3.492
				c0,1.93,1.563,3.493,3.497,3.493C168.464,156.644,170.027,155.08,170.027,153.15z"/>
			<circle opacity="0.2" fill="#F6F9FB" cx="144.308" cy="254.08" r="3.494"/>
			<path opacity="0.2" fill="#F6F9FB" d="M171.124,56.099c0-2.537-2.054-4.588-4.588-4.588c-2.54,0-4.589,2.051-4.589,4.588
				c0,2.535,2.049,4.586,4.589,4.586C169.07,60.686,171.124,58.634,171.124,56.099z"/>
			<path opacity="0.2" fill="#F6F9FB" d="M107.164,67.013c0-2.537-2.053-4.588-4.587-4.588c-2.537,0-4.589,2.051-4.589,4.588
				c0,2.535,2.052,4.586,4.589,4.586C105.111,71.599,107.164,69.548,107.164,67.013z"/>
			<circle opacity="0.2" fill="#F6F9FB" cx="99.345" cy="208.309" r="3.231"/>
			<circle opacity="0.2" fill="#F6F9FB" cx="132.082" cy="160.528" r="1.739"/>
			<circle opacity="0.2" fill="#F6F9FB" cx="114.551" cy="167.979" r="1.74"/>
			<circle opacity="0.2" fill="#F6F9FB" cx="152.826" cy="62.425" r="1.74"/>
		</g>
		<g>
			<path fill="#FFFFFF" d="M211.751,260.24l-1.351-30.073c33.268-15.286,40.638-24.492,40.638-35.902v-66.925
				c0-1.773,0-3.448-4.974-3.448h-39.983V96.197h39.983c19.232,0,32.667,12.807,32.667,31.143v66.925
				C278.731,218.605,258.074,238.953,211.751,260.24z"/>
		</g>
		<g>
			<circle fill="#F6F9FB" cx="55.675" cy="49.402" r="34.577"/>
			<circle fill="#F6F9FB" cx="105.332" cy="49.402" r="28.691"/>
			<circle fill="#F6F9FB" cx="80.811" cy="25.66" r="24.522"/>
			<circle fill="#F6F9FB" cx="144.324" cy="41.677" r="29.794"/>
			<circle fill="#F6F9FB" cx="182.366" cy="49.4" r="24.066"/>
			<circle fill="#F6F9FB" cx="198.763" cy="43.884" r="17.657"/>
			<circle fill="#F6F9FB" cx="214.945" cy="65.956" r="19.127"/>
			<circle fill="#F6F9FB" cx="182.365" cy="83.978" r="15.449"/>
			<path fill="#F6F9FB" d="M203.57,108.239c0-7.735-6.269-14.004-14.003-14.004c-7.736,0-14.007,6.27-14.007,14.004
				c0,7.735,6.271,14.008,14.007,14.008C197.302,122.247,203.57,115.975,203.57,108.239z"/>
		</g>
	</g>
</g>
</svg>
