<?xml version="1.0" encoding="utf-8"?>
<!-- Generator: Adobe Illustrator 16.0.0, SVG Export Plug-In . SVG Version: 6.00 Build 0)  -->
<!DOCTYPE svg PUBLIC "-//W3C//DTD SVG 1.1//EN" "http://www.w3.org/Graphics/SVG/1.1/DTD/svg11.dtd">
<svg version="1.1" xmlns="http://www.w3.org/2000/svg" xmlns:xlink="http://www.w3.org/1999/xlink" x="0px" y="0px" width="300px"
	 height="300px" viewBox="0 0 300 300" enable-background="new 0 0 300 300" xml:space="preserve">
<g id="healthy">
	<path fill="#613C16" d="M222.602,52.729c-0.016-1.395-0.045-2.792-0.08-4.191c-0.603-1.147-0.974-4.753-0.397-9.537
		c-0.893-16.176-2.671-29.917-2.671-29.917c-10.122-3.797-14.801,1.684-14.801,1.684c5.95,16.803,7.39,31.74,7.149,43.178
		c2.576-0.965,5.249-1.479,8.015-1.449C220.757,52.507,221.685,52.601,222.602,52.729z"/>
	<path fill="#115F30" d="M222.521,48.539c0.133,0.253,0.274,0.418,0.422,0.415c57.392-1.449,54.58-47.682,54.58-47.682
		c-42.466-3.653-53.591,22.708-55.399,37.731C221.548,43.786,221.919,47.391,222.521,48.539z"/>
	<g>
		<path fill="#29B34B" d="M262.061,129.166c-2.413-36.6-17.47-73.322-39.459-76.436c-0.917-0.129-1.845-0.223-2.785-0.232
			c-2.766-0.031-5.438,0.484-8.015,1.449c-19.312,7.234-32.952,40.686-35.917,74.273c-3.357,38.068-43.738,58.146-24.782,115.38
			c11.476,34.637,45.581,41.173,66.147,41.399c20.564,0.226,54.81-5.562,67.046-39.938
			C304.507,188.255,264.581,167.295,262.061,129.166z M232.059,271.432c0,0,34.128-19.756,20.832-66.845
			c-13.297-47.089-20.733-55.943-19.144-85.997c1.585-30.051-8.27-47.699-8.27-47.699s16.255,6.44,20.947,36.562
			c4.693,30.123,6.982,50.196,19.363,66.62C278.166,190.495,287.429,262.015,232.059,271.432z"/>
		<path fill="#29B34B" d="M246.425,107.454c-4.692-30.122-20.947-36.562-20.947-36.562s9.854,17.647,8.27,47.699
			c-1.59,30.053,5.847,38.908,19.144,85.997c13.296,47.089-20.832,66.845-20.832,66.845c55.37-9.417,46.107-80.937,33.729-97.358
			C253.407,157.649,251.118,137.576,246.425,107.454z"/>
		<path fill="#045F31" d="M85.094,146.94c-1.092-5.983-1.913-14.353-0.737-23.544c-3.159-5.73-7.721-11.753-14.23-17.519
			c-7.323-6.486-17.051-8.462-29.998-14.553c0,0-11.709,28.625,18.786,48.762C69.855,139.531,78.959,143.294,85.094,146.94z"/>
		<path fill="#855B24" d="M85.094,146.94c5.388,3.201,8.487,6.31,8.487,6.31s1.041-1.344,3.009-3.271
			c-6.329-46.556,20.016-51.449,20.016-51.449c-2.706-14.228-15.213-10.049-15.213-10.049c-11.027,10.847-15.576,23.5-17.036,34.914
			C83.181,132.587,84.002,140.957,85.094,146.94z"/>
		<path fill="#D04A48" d="M162.016,146.338c-33.867-21.827-57.43-4.188-65.426,3.642c-1.969,1.927-3.009,3.271-3.009,3.271
			s-3.099-3.109-8.487-6.31c-6.134-3.646-15.238-7.409-26.179-6.854c-9.28,0.47-19.874,4.045-31.076,13.447
			c-42.119,35.344-4.707,113.111,31.539,137.103c30.372,20.103,44.708-1.86,44.708-1.86s17.922,24.274,44.46-5.051
			C177.71,251.495,203.608,173.145,162.016,146.338z M147.798,255.824c0.56-3.72,0.443-7.53,1.336-11.11
			c14.419-57.858-24.383-89.976-25.28-90.836c7.754-1.13,17.326,0.292,28.389,7.423
			C180.289,179.377,166.765,229.204,147.798,255.824z"/>
		<path fill="#D04A48" d="M152.243,161.301c-11.063-7.131-20.634-8.553-28.389-7.423c0.896,0.86,39.699,32.978,25.28,90.836
			c-0.893,3.58-0.776,7.391-1.336,11.11C166.765,229.204,180.289,179.377,152.243,161.301z"/>
	</g>
</g>
</svg>
