<?xml version="1.0" encoding="utf-8"?>
<!-- Generator: Adobe Illustrator 16.0.0, SVG Export Plug-In . SVG Version: 6.00 Build 0)  -->
<!DOCTYPE svg PUBLIC "-//W3C//DTD SVG 1.1//EN" "http://www.w3.org/Graphics/SVG/1.1/DTD/svg11.dtd">
<svg version="1.1" xmlns="http://www.w3.org/2000/svg" xmlns:xlink="http://www.w3.org/1999/xlink" x="0px" y="0px" width="300px"
	 height="300px" viewBox="0 0 300 300" enable-background="new 0 0 300 300" xml:space="preserve">
<g id="cigaret">
	<g>
		<rect x="78.285" y="210.767" fill="#D76927" width="29.967" height="88.233"/>
		<rect x="78.285" y="0.75" fill="#E6E6E6" width="29.967" height="210.017"/>
		<rect x="78.285" y="207.902" fill="#C75B28" width="29.967" height="3.297"/>
	</g>
	<g>
		<path fill="#1C76B5" d="M117.653,78.71v216.31c0,2.188,2.121,3.98,4.711,3.98h90.047c2.594,0,4.715-1.792,4.715-3.98V78.71
			H117.653z"/>
		<path fill="#076DAB" d="M217.126,78.71L124.888,299h87.523c2.594,0,4.715-1.792,4.715-3.98V78.71L217.126,78.71z"/>
		<path fill="#076DAB" d="M124.888,78.71h-7.234v216.31c0,2.188,2.121,3.98,4.711,3.98h2.523V78.71z"/>
		<rect x="215.53" y="57.146" fill="#0F0F0F" width="8.244" height="6.523"/>
		<rect x="121.792" y="52.059" fill="#0F0F0F" width="34.842" height="13.27"/>
		<path fill="#161616" d="M150.856,46.223c-0.277-1.373-1.408-2.402-2.766-2.402h-27.854c-1.369,0-2.643,0.956-2.826,2.402h-0.006
			v7.273h42.926v-7.273H150.856z"/>
		<g>
			<polygon fill="#1A1A1A" points="180.3,30.98 179.55,31.52 180.269,32.101 179.485,32.595 180.167,33.219 179.358,33.665 
				179.999,34.33 179.163,34.726 179.763,35.427 178.907,35.772 179.462,36.51 178.587,36.8 179.097,37.57 178.204,37.807 
				178.667,38.606 177.761,38.787 178.175,39.613 177.261,39.739 177.622,40.59 176.7,40.661 177.013,41.53 176.089,41.546 
				176.347,42.434 175.425,42.394 175.628,43.294 174.71,43.199 174.86,44.109 173.948,43.96 174.044,44.879 173.142,44.674 
				173.183,45.597 172.296,45.338 172.28,46.261 171.411,45.95 171.339,46.87 170.489,46.508 170.362,47.422 169.536,47.009 
				169.354,47.913 168.558,47.45 168.319,48.342 167.552,47.832 167.261,48.709 166.524,48.152 166.179,49.009 165.478,48.408 
				165.083,49.242 164.421,48.601 163.976,49.411 163.351,48.729 162.856,49.511 162.274,48.793 161.735,49.544 161.198,48.794 
				160.614,49.511 160.122,48.729 159.495,49.41 159.05,48.601 158.386,49.242 157.989,48.408 157.288,49.008 156.944,48.15 
				156.206,48.707 155.915,47.829 155.146,48.341 154.911,47.448 154.11,47.91 153.929,47.005 153.103,47.419 152.976,46.505 
				152.126,46.867 152.056,45.945 151.185,46.257 151.169,45.334 150.282,45.592 150.323,44.669 149.423,44.873 149.517,43.954 
				148.604,44.105 148.755,43.193 147.837,43.288 148.042,42.387 147.118,42.427 147.378,41.54 146.454,41.524 146.765,40.655 
				145.847,40.584 146.208,39.734 145.294,39.606 145.706,38.78 144.802,38.6 145.265,37.801 144.374,37.563 144.884,36.796 
				144.009,36.504 144.565,35.768 143.708,35.424 144.308,34.722 143.474,34.327 144.114,33.664 143.306,33.219 143.985,32.595 
				143.204,32.102 143.921,31.52 143.173,30.98 143.921,30.44 143.204,29.858 143.985,29.365 143.306,28.74 144.114,28.295 
				143.474,27.629 144.308,27.234 143.708,26.532 144.565,26.188 144.009,25.451 144.886,25.16 144.376,24.391 145.269,24.152 
				144.806,23.354 145.71,23.172 145.298,22.346 146.212,22.22 145.849,21.37 146.771,21.299 146.46,20.43 147.382,20.414 
				147.124,19.527 148.048,19.566 147.843,18.666 148.761,18.761 148.612,17.85 149.522,18 149.429,17.082 150.329,17.286 
				150.288,16.363 151.175,16.622 151.192,15.698 152.062,16.01 152.132,15.09 152.981,15.452 153.11,14.538 153.935,14.951 
				154.116,14.046 154.913,14.51 155.151,13.617 155.921,14.128 156.212,13.252 156.948,13.809 157.292,12.951 157.993,13.552 
				158.39,12.716 159.052,13.359 159.497,12.55 160.122,13.23 160.614,12.449 161.196,13.166 161.735,12.416 162.274,13.166 
				162.856,12.449 163.351,13.23 163.976,12.55 164.421,13.359 165.087,12.718 165.481,13.552 166.185,12.952 166.528,13.809 
				167.265,13.253 167.556,14.13 168.327,13.619 168.562,14.512 169.362,14.049 169.544,14.955 170.37,14.541 170.495,15.456 
				171.345,15.093 171.417,16.014 172.286,15.703 172.302,16.626 173.188,16.369 173.149,17.291 174.05,17.087 173.954,18.006 
				174.866,17.855 174.716,18.767 175.634,18.672 175.431,19.572 176.353,19.532 176.095,20.42 177.019,20.437 176.706,21.305 
				177.626,21.376 177.263,22.225 178.179,22.353 177.765,23.179 178.669,23.36 178.206,24.158 179.097,24.395 178.587,25.164 
				179.464,25.455 178.907,26.192 179.765,26.536 179.163,27.238 179.999,27.633 179.358,28.296 180.167,28.741 179.485,29.365 
				180.269,29.857 179.55,30.44 			"/>
			<circle fill="#0F0F0F" cx="161.736" cy="30.98" r="17.507"/>
		</g>
		<path fill="#969393" d="M217.14,65.328c0,0-0.654-25.284-0.777-28.615c-0.178-4.809-14.381-6.235-17.744-6.831
			c-2.396-0.425-4.797-0.841-7.199-1.246c-8.168-1.378-16.35-2.7-24.561-3.897c-3.447-0.504-12.848-1.879-13.818-1.707
			c-2.135,0.378-2.283,2.392-2.283,3.813c0,4.978,0,40.144,0,40.144L217.14,65.328z"/>
		<path fill="#787676" d="M209.749,32.012c-2.836,1.971-5.721,3.899-8.645,5.784c-12.891,8.312-25.928,16.323-39.338,24.042
			c-2.947,1.696-5.896,3.391-8.836,5.096l64.209-1.605c0,0-0.654-25.284-0.777-28.615C216.28,34.524,213.296,33.039,209.749,32.012z
			"/>
		<rect x="117.653" y="63.669" fill="#013A56" width="99.473" height="15.041"/>
		<g>
			<path fill="#0E0E0E" d="M216.524,42.145h-17.367c-0.672,0-1.215,0.368-1.215,0.823s0.543,0.823,1.215,0.823h17.41L216.524,42.145
				z"/>
			<path fill="#0E0E0E" d="M216.626,45.927h-17.469c-0.672,0-1.215,0.368-1.215,0.823c0,0.454,0.543,0.823,1.215,0.823h17.514
				L216.626,45.927z"/>
			<path fill="#0E0E0E" d="M216.729,49.708h-17.572c-0.672,0-1.215,0.368-1.215,0.823s0.543,0.824,1.215,0.824h17.615
				L216.729,49.708z"/>
		</g>
		<polygon fill="#0A0A0A" points="217.091,57.146 217.126,63.669 215.53,63.669 215.53,57.146 		"/>
		<rect x="154.155" y="53.496" fill="#0F0F0F" width="15.162" height="7.299"/>
	</g>
</g>
</svg>
